<svg width="73" height="50" fill="none" xmlns="http://www.w3.org/2000/svg"><path fill-rule="evenodd" clip-rule="evenodd" d="M18.034.361c-.312.284-8.977 11.172-11.63 14.613-1.112 1.443-.659 2.032 2.143 2.785 1.42.381 2.023.612 1.969.753-.043.112-2.06 2.481-4.483 5.266-2.9 3.333-4.437 5.224-4.5 5.538-.073.358-.002.583.285.912.336.384.702.502 3.04.977 1.462.298 2.688.571 2.726.608.037.037-1.654 2.115-3.758 4.619C1.155 39.61 0 41.102 0 41.374c0 .662.632 1.197 1.63 1.38 2.935.54 9.06 1.14 14.054 1.38 1.142.056 2.077.13 2.077.167 0 .037-.357.556-.794 1.154-.927 1.269-1.064 1.621-.847 2.184.28.728.546.8 5.226 1.408 8.59 1.116 18.5 1.26 26.968.392 3.654-.375 7.289-.899 7.863-1.133.585-.239.925-.88.755-1.423-.058-.188-.536-.845-1.06-1.46-.525-.615-.937-1.134-.916-1.154.021-.019 1.677-.115 3.68-.214 4.272-.21 7.608-.528 11.103-1.059 2.282-.346 2.559-.424 2.892-.808.203-.233.369-.6.369-.814 0-.273-1.155-1.764-3.826-4.942-2.104-2.504-3.798-4.58-3.764-4.613.034-.033 1.26-.305 2.725-.604 2.352-.48 2.708-.594 3.046-.983.288-.332.359-.558.286-.917-.063-.313-1.603-2.211-4.506-5.553-2.426-2.793-4.444-5.164-4.485-5.27-.049-.126.625-.377 1.974-.736 2.145-.571 2.685-.91 2.683-1.687-.002-.467.152-.262-6.411-8.542C56.675 2.423 54.76.127 54.489.06a1.927 1.927 0 0 0-.782 0c-.264.066-1.824 1.872-4.828 5.59-2.44 3.021-4.51 5.469-4.598 5.44-.089-.03-1.68-2.12-3.535-4.645-3.532-4.807-3.78-5.059-4.683-4.744-.31.109-1.405 1.47-3.81 4.744-1.854 2.525-3.445 4.615-3.534 4.644-.089.03-2.152-2.41-4.585-5.422C21.703 2.656 19.598.148 19.456.095a1.355 1.355 0 0 0-1.422.266Zm5.008 8.064c2.204 2.727 4.007 4.993 4.007 5.035 0 .042-1.026 1.472-2.281 3.178-2.425 3.297-2.651 3.805-1.988 4.462.162.16 1.32.568 2.6.914 1.593.431 2.27.683 2.191.812-.063.103-2.241 2.564-4.84 5.47-2.599 2.905-4.828 5.489-4.953 5.743-.186.375-.191.551-.027.943.241.578.476.677 3.147 1.33 1.148.282 2.074.59 2.07.69-.004.1-.724 1.162-1.6 2.36l-1.594 2.178-3.329-.024c-1.83-.013-4.281-.104-5.446-.2-3.097-.259-6.702-.688-6.928-.826-.131-.08 1.019-1.563 3.472-4.478 2.017-2.398 3.718-4.517 3.78-4.71.162-.505-.198-1.24-.705-1.442-.239-.095-1.533-.397-2.877-.671-1.343-.274-2.458-.514-2.477-.532-.018-.02 1.732-2.064 3.89-4.546 4.893-5.625 5.185-5.988 5.185-6.444 0-.754-.492-1.064-2.668-1.68-1.143-.323-2.08-.659-2.08-.746-.003-.214 9.2-11.857 9.337-11.81.059.02 1.91 2.267 4.114 4.994Zm35.842.926c2.562 3.236 4.605 5.93 4.54 5.986-.066.057-.955.33-1.977.608-1.022.277-2.03.615-2.238.75-.459.298-.65.945-.422 1.424.092.193 2.152 2.634 4.578 5.425 2.426 2.79 4.389 5.095 4.362 5.121-.027.027-1.143.267-2.48.533-1.337.267-2.627.564-2.865.66-.506.204-.867.94-.706 1.44.062.192 1.788 2.332 3.836 4.756 3.309 3.914 3.685 4.416 3.366 4.495-1.677.413-10.322 1.074-13.965 1.067l-2.363-.004-1.899-2.214c-1.044-1.218-1.91-2.286-1.922-2.374-.013-.088 1.281-.423 2.876-.745 1.596-.321 3.022-.635 3.17-.698.15-.063.362-.331.473-.597.165-.394.16-.568-.026-.944-.125-.253-2.419-2.913-5.098-5.91-4.534-5.075-4.843-5.459-4.48-5.57.213-.066 1.263-.354 2.331-.64 3.35-.898 3.357-1.067.25-5.293-1.26-1.711-2.268-3.165-2.241-3.23.12-.296 8.045-10.002 8.138-9.968.057.02 2.2 2.685 4.762 5.922Zm-16.996 2.986c3.533 4.812 5.138 7.123 5 7.198-.573.309-3.462.952-4.276.952-2.589 0-6.423-1.868-10.43-5.082-.807-.647-1.59-1.311-1.742-1.477-.262-.287-.13-.498 2.835-4.54 1.71-2.331 3.177-4.216 3.26-4.189.082.027 2.49 3.239 5.353 7.138Zm-22.388-1.2c-.552.43-.71 1.248-.366 1.904.486.933 1.522 1.114 2.362.414.416-.347.502-.536.502-1.108 0-1.332-1.443-2.032-2.498-1.21Zm31.902 1.68c-.305.301-.4.566-.4 1.114 0 .605.08.786.502 1.137.275.23.682.418.904.418 1.04 0 1.83-.942 1.611-1.924-.243-1.097-1.81-1.544-2.617-.746ZM39.17 14.03c-.485.195-1.04.944-1.04 1.405 0 .991.979 1.82 1.884 1.595.69-.171 1.211-.803 1.211-1.467 0-.79-.247-1.19-.904-1.462-.623-.258-.674-.261-1.15-.07Zm-9.27 2.832c3.077 2.626 6.891 4.85 9.813 5.722l1.176.351-1 1.478c-3.962 5.856-8.326 9.35-12.753 10.212l-1.314.255-2.197-.522c-1.209-.287-2.223-.544-2.255-.572-.031-.027 2.153-2.524 4.853-5.548 2.701-3.025 4.98-5.68 5.064-5.9.196-.509-.028-1.114-.523-1.418-.206-.126-1.291-.464-2.411-.751s-2.128-.572-2.24-.632c-.14-.077.203-.667 1.117-1.919.81-1.11 1.391-1.766 1.506-1.7.103.06.627.485 1.165.944Zm17.818 12.417c2.142 2.396 3.88 4.374 3.86 4.397-.019.023-1.348.301-2.953.619-1.605.317-3.082.681-3.283.808-.458.29-.629.935-.387 1.46.102.223 1.069 1.415 2.148 2.65l1.961 2.246h-.748c-3.247 0-9.911-1.293-14.179-2.751-2.196-.751-4.644-1.758-4.644-1.911 0-.063.357-.24.793-.396.436-.155 1.362-.604 2.058-.996 3.509-1.98 6.784-5.212 9.665-9.538l1.09-1.638.362.347c.199.191 2.114 2.308 4.257 4.703Zm-34.393-4.032c-.884.492-1.042 1.519-.356 2.326.348.41.54.495 1.1.491 1.006-.008 1.574-.58 1.574-1.588 0-1.063-1.339-1.772-2.318-1.229Zm17.598 0c-.884.492-1.042 1.519-.356 2.326.349.41.54.495 1.1.491 1.006-.008 1.574-.58 1.574-1.588 0-1.063-1.339-1.772-2.318-1.229Zm25.281 1.842c-.353.349-.476.625-.476 1.06 0 1.36 1.714 2.056 2.658 1.081.943-.975.247-2.613-1.11-2.613-.441 0-.72.123-1.072.472Zm-15.467 4.386c-.592.23-.97.788-.974 1.438-.005.699.315 1.178.964 1.444 1.822.747 3.008-1.974 1.225-2.811-.605-.285-.658-.288-1.215-.072Zm-27.714 5.132c-.352.35-.476.625-.476 1.061 0 .82.72 1.533 1.548 1.533.828 0 1.548-.713 1.548-1.533s-.72-1.532-1.548-1.532c-.44 0-.72.122-1.072.471Zm14.209 2.04c3.014 1.498 6.852 2.889 10.48 3.797 3.546.888 7.011 1.369 12.177 1.689l1.575.097.845.99.845.988-.441.117c-.673.178-6.21.755-9.016.94-6.62.434-17.175.042-22.873-.85l-1.248-.196 2.392-3.315c3.513-4.868 3.606-4.994 3.699-4.994.047 0 .75.331 1.565.736Zm.272 4.248c-1.079.954-.478 2.598.95 2.598.77 0 1.187-.248 1.446-.86.292-.694.14-1.322-.438-1.804-.648-.54-1.299-.517-1.958.066Z" fill="#F8F8F8"/></svg>