<svg width="43" height="38" fill="none" xmlns="http://www.w3.org/2000/svg"><path fill-rule="evenodd" clip-rule="evenodd" d="M.5.131C-.073.386-.178 1.292.312 1.744l.257.237h2.475c1.488 0 2.653.038 2.921.095 1.08.232 2.053 1.048 2.574 2.159l.31.662.989.005c.55.003.988-.03.988-.074 0-.241-.532-1.623-.796-2.068C9.19 1.345 7.656.33 6 .094 4.988-.05.844-.022.5.131Zm9.022 7.05a1.157 1.157 0 0 0-.26.438c-.041.17.624 2.701 2.449 9.324 1.377 5 2.558 9.2 2.622 9.332.064.132.249.304.41.383.205.1.278.183.243.276-.147.39-.374 1.567-.375 1.944-.001.927.426 2.036 1.079 2.799.434.507 1.22 1.064 1.717 1.217.362.11.354.046.11.927-.165.593-.165.952 0 1.598.332 1.305 1.277 2.224 2.57 2.5 2.512.536 4.664-1.983 3.81-4.46l-.112-.324h3.655c2.01 0 3.654.022 3.654.049a.753.753 0 0 1-.08.202c-.165.314-.248 1.202-.164 1.738.287 1.824 2.026 3.126 3.787 2.835 2.054-.338 3.331-2.481 2.657-4.458l-.125-.366h1.483c1.322 0 1.512-.019 1.752-.168.532-.332.557-1.276.043-1.62-.205-.138-1.016-.151-11.241-.191l-11.021-.043-.342-.188c-.414-.226-.93-.793-1.11-1.22-.214-.504-.168-1.393.116-2.25l.243-.731 10.414-.044 10.415-.043.156-.196c.193-.245-.02.537 2.69-9.857 1.546-5.927 2.268-8.832 2.232-8.98a1.087 1.087 0 0 0-.273-.424l-.219-.208H9.725l-.203.208Zm23.66 5.765c.579.306.648 1.262.123 1.684-.212.171-.324.174-7.173.174-6.881 0-6.96-.002-7.176-.176-.517-.416-.443-1.362.132-1.69.298-.169 13.774-.161 14.095.008Zm.123 6.076c.525.423.456 1.379-.122 1.684-.35.185-13.758.182-14.108-.003-.548-.29-.64-1.134-.175-1.609l.24-.245h6.974c6.867 0 6.98.003 7.192.173ZM21.425 33.33c.785.547.93 1.566.314 2.211-.331.347-.547.435-1.065.435-1.004 0-1.657-1.117-1.196-2.043.163-.327.47-.62.768-.735.32-.123.907-.057 1.179.132Zm13.384-.004c.458.263.696.685.693 1.227-.004.854-.48 1.354-1.334 1.403-.4.023-.566-.008-.782-.147-.714-.458-.885-1.492-.36-2.175.388-.505 1.197-.645 1.783-.308Z" fill="#8DB437"/></svg>