<svg width="50" height="52" fill="none" xmlns="http://www.w3.org/2000/svg"><path fill-rule="evenodd" clip-rule="evenodd" d="M23.242.252c-6.615 1.04-11.694 4.654-13.563 9.65-.63 1.683-1.013 4.04-1.284 7.889-.29 4.126-.834 7.2-1.778 10.043-1.303 3.917-2.941 6.724-5.388 9.23-.74.759-1.291 1.38-1.223 1.38.313 0 3.468-2.187 4.864-3.37 1.952-1.656 3.308-3.312 4.333-5.291 1.136-2.193 1.63-3.61 2.683-7.692 1.06-4.112 1.93-6.571 2.905-8.217.898-1.518 3.006-3.606 4.588-4.547 3.303-1.964 8.58-2.673 12.929-1.737 3.545.764 4.516.862 6.176.626.85-.121 1.92-.371 2.379-.556l.834-.335-1.1-.625c-.605-.344-1.912-1.301-2.904-2.128-3.113-2.594-4.936-3.526-8.274-4.227-2.036-.429-3.866-.456-6.177-.093Zm21.539 8.652c1.665 1.655 3.134 3.96 3.933 6.17.493 1.363.602 2.014.682 4.063.133 3.428-.186 4.71-2.15 8.651-.86 1.727-1.786 3.91-2.056 4.852-.959 3.34-1.128 7.411-.426 10.26l.26 1.055-.132-1.203c-.072-.661-.126-2.42-.12-3.908.017-3.693.599-6.002 2.579-10.222 1.73-3.687 2.237-5.131 2.543-7.24.596-4.113-1.37-9.457-4.558-12.387-1.714-1.575-2.115-1.641-.555-.09Zm-6.255 12.617c-.245.172-.634.691-.864 1.152-.23.461-.557.997-.726 1.19-.282.323-.266.35.207.35.283 0 .792-.235 1.131-.522.503-.426.672-.477.912-.276.389.324.376 1.634-.028 2.903-.334 1.047-.452 4.66-.168 5.123.093.151.297-.228.527-.982.206-.675.784-1.83 1.285-2.565 1.02-1.5 1.468-2.602 1.468-3.612 0-2.192-2.223-3.832-3.744-2.761Zm-18.273.51c-.219.13-.95.765-1.626 1.41-.675.645-1.37 1.173-1.544 1.173-.174 0-.316.102-.316.226 0 .436 1.93-.022 3.717-.882 1.703-.819 1.827-.847 3.727-.847h1.966l-1.268-.582c-1.433-.656-3.937-.924-4.656-.498Zm12.29 3.674c-.359.697-1.151 1.842-1.761 2.543l-1.108 1.276 1.267-1.306c.714-.735 1.513-1.816 1.83-2.473.765-1.586.585-1.617-.228-.04Zm-19.495-.69c.046.276.23 1.038.407 1.695.383 1.418.402 2.256.092 4.14-.198 1.206-.185 1.5.092 2.085.46.969 1.35 1.371 2.968 1.343 1.393-.024 2.412-.393 2.625-.952.095-.249.004-.228-.401.093-.718.568-2.405.575-3.115.014-.664-.526-1.14-1.98-1.144-3.493-.002-.67-.121-1.713-.265-2.32-.277-1.161-1.41-3.51-1.259-2.605Zm8.7.651c-1.59.104-2.934.234-2.989.288-.211.21 1.128 1.061 1.944 1.236 1.16.25 2.304-.033 3.585-.884 1.116-.74 1.253-.908.698-.86-.192.017-1.65.116-3.238.22Zm2.928 6.366c1.347.198 2.275.793 3.057 1.96.41.611.581.768.488.443-.415-1.447-2.103-2.626-3.697-2.58l-.883.024 1.035.152Zm-9.28 2.992c-1.396.357-2.503 1.634-2.729 3.147-.14.941.024 1.96.723 4.481.502 1.81.427 3.71-.202 5.14-.409.928-.409.937-.014.578.72-.656 1.574-2.191 1.899-3.415.295-1.115.293-1.328-.033-2.978l-.351-1.777.463-.377c.686-.56 2.244-.499 3.607.14.863.403 2.023 1.436 5.479 4.876 2.411 2.4 4.817 4.658 5.346 5.017 1.699 1.153 3.177 1.635 6.51 2.122.571.084.403-.055-.934-.77-3.509-1.875-5.004-3.47-6.98-7.447-2.588-5.212-4.404-7.047-8.22-8.307-1.464-.483-3.576-.682-4.564-.43Zm22.54 1.064c-.11.138-.267.476-.35.752-.652 2.176-2.353 4.39-5.378 6.996l-.996.86.897-.623c1.385-.961 3.008-2.405 3.927-3.495.77-.912 2.03-3.219 2.344-4.29.142-.487-.121-.606-.444-.2ZM17.652 41.52c.604.608.673 1.677.208 3.218-.563 1.869-.254 4.169.652 4.846.95.71 3.517.461 5.415-.524 1.279-.665 1.267-.777-.021-.204-.485.216-1.507.496-2.272.624-1.177.195-1.504.182-2.139-.085-1.359-.57-1.889-2.643-1.232-4.82.163-.542.297-1.228.297-1.524 0-.58-.73-1.816-1.157-1.957-.143-.047-.031.144.249.426Z" fill="#FF5C5C"/></svg>