<svg width="16" height="16" fill="none" xmlns="http://www.w3.org/2000/svg"><path fill-rule="evenodd" clip-rule="evenodd" d="m6.896.328-.362.328.474.43.474.43v1.342l-.845-.764-.845-.765-.346.311c-.19.172-.345.326-.345.344 0 .018.536.517 1.191 1.11l1.191 1.078-.009.703-.009.703-.767.4-.766.402-.67-.35-.669-.35-.434-1.468a46.991 46.991 0 0 0-.453-1.486c-.016-.014-.948.198-.975.222-.004.004.123.45.284.99.16.542.288 1.001.283 1.022-.005.023-.255-.09-.613-.277-.332-.173-.609-.32-.615-.325a11.55 11.55 0 0 1-.184-.581 17.11 17.11 0 0 0-.179-.58c-.007-.006-.844.192-.943.224-.03.01-.003.145.09.464l.132.45-.488.118A13.64 13.64 0 0 0 0 4.58c-.01.007.236.864.254.884a27.87 27.87 0 0 0 1.246-.29c.035-.011 1.193.573 1.267.64.018.015-.027.04-.103.058l-1.106.268c-.534.13-.98.236-.992.236-.011 0-.02.02-.02.046 0 .054.229.828.25.848.009.007.74-.163 1.625-.378s1.63-.39 1.653-.39c.024.001.33.153.682.338l.638.337v1.648l-.638.337c-.351.185-.658.337-.682.338-.024 0-.768-.175-1.653-.39a47.338 47.338 0 0 0-1.624-.38c-.022.02-.251.794-.251.848 0 .025.009.046.02.046.012 0 .458.106.992.236l1.106.268c.076.018.12.043.103.059-.074.066-1.232.65-1.267.64a27.9 27.9 0 0 0-1.246-.291c-.018.02-.264.877-.254.884.006.004.23.06.498.126l.488.118-.132.45c-.093.32-.12.455-.09.464.1.032.936.23.943.223.004-.003.085-.264.18-.579a10.6 10.6 0 0 1 .183-.581c.006-.006.283-.152.615-.325.358-.187.608-.3.613-.277.005.02-.122.48-.283 1.021-.16.54-.288.987-.284.991.027.024.96.236.975.222.01-.01.214-.678.453-1.486l.434-1.469.67-.35.669-.35.766.402.767.401.01.703.008.703-1.19 1.078c-.656.593-1.192 1.092-1.192 1.11 0 .018.156.172.345.344l.346.311.845-.765.845-.765v1.342l-.474.43-.474.43.362.329.36.328.372-.335.372-.336.372.336.371.335.361-.328.362-.328-.474-.43-.474-.43v-1.342l.845.764.845.765.346-.311c.19-.172.345-.326.345-.344 0-.018-.536-.517-1.191-1.11l-1.191-1.078.009-.702.009-.701.768-.403.769-.402.666.348.667.347.435 1.47c.24.81.444 1.48.454 1.489.017.015.943-.193.971-.219.007-.006-.12-.453-.28-.994-.16-.54-.288-1-.283-1.022.005-.025.24.081.613.276.332.174.609.32.615.326.006.005.088.267.182.581.094.315.175.575.18.58.009.008.858-.192.944-.222.03-.01.003-.144-.09-.465l-.132-.451.487-.117c.269-.064.493-.12.499-.125.01-.008-.235-.864-.253-.885a30.414 30.414 0 0 0-1.247.29c-.047.014-1.308-.633-1.281-.657.012-.011 2.187-.545 2.22-.545.008 0 .015-.02.015-.046a8.8 8.8 0 0 0-.25-.847c-.007-.007-.734.163-1.615.377a57.25 57.25 0 0 1-1.655.389c-.028 0-.339-.153-.69-.338l-.638-.336V7.176l.638-.336c.351-.185.662-.337.69-.338.029 0 .773.174 1.655.389.88.214 1.608.384 1.616.377a8.8 8.8 0 0 0 .25-.847c0-.025-.008-.046-.016-.046-.033 0-2.208-.534-2.22-.545-.027-.024 1.234-.671 1.281-.658a29.1 29.1 0 0 0 1.247.29c.018-.02.262-.876.253-.884a9.762 9.762 0 0 0-.499-.125l-.487-.117.131-.45c.094-.322.12-.456.091-.466-.086-.03-.935-.23-.944-.222a15.03 15.03 0 0 0-.18.58 12.42 12.42 0 0 1-.182.581c-.006.006-.283.153-.615.326-.373.195-.608.3-.613.276-.005-.021.123-.481.283-1.022.16-.54.287-.988.28-.994-.028-.026-.954-.234-.971-.219-.01.01-.215.68-.454 1.488l-.435 1.47-.667.348-.666.348-.769-.402-.768-.402-.01-.702-.008-.702 1.19-1.078c.656-.593 1.192-1.092 1.192-1.11 0-.018-.155-.172-.345-.344l-.346-.311-.845.765-.845.765V1.516l.474-.43.474-.43-.362-.328L8.744 0l-.372.335L8 .671 7.628.335 7.257 0l-.361.328Zm1.88 6.449.76.4v1.646l-.767.402-.766.402-.77-.402-.769-.402V7.176l.76-.399c.417-.22.767-.4.776-.4.01 0 .359.18.777.4ZM7.482 8v.469h1.036V7.53H7.482V8Z" fill="#91B737"/></svg>