<svg width="16" height="16" fill="none" xmlns="http://www.w3.org/2000/svg"><path d="M10.5 8h1.667c0-2.3-1.867-4.167-4.167-4.167V5.5c1.383 0 2.5 1.117 2.5 2.5Zm3.333 0H15.5A7.5 7.5 0 0 0 8 .5v1.667A5.829 5.829 0 0 1 13.833 8Zm.834 2.917a9.468 9.468 0 0 1-2.975-.475.93.93 0 0 0-.259-.042.853.853 0 0 0-.591.242l-1.834 1.833a12.538 12.538 0 0 1-5.491-5.492L5.35 5.142a.8.8 0 0 0 .208-.834 9.467 9.467 0 0 1-.475-2.975A.836.836 0 0 0 4.25.5H1.333a.836.836 0 0 0-.833.833C.5 9.158 6.842 15.5 14.667 15.5a.836.836 0 0 0 .833-.833V11.75a.836.836 0 0 0-.833-.833ZM2.192 2.167h1.25c.058.733.183 1.458.375 2.15l-1 1.008a12.79 12.79 0 0 1-.625-3.158Zm11.641 11.641a12.416 12.416 0 0 1-3.166-.633l1-1c.708.2 1.433.325 2.166.375v1.258Z" fill="#20223F"/></svg>