<svg width="50" height="50" fill="none" xmlns="http://www.w3.org/2000/svg"><path fill-rule="evenodd" clip-rule="evenodd" d="M22.958 11.777c0 1.95-.417 3.85-1.205 5.494-.488 1.016-.894 1.626-2.447 3.675-1.069 1.41-1.438 1.922-1.736 2.405-.994 1.61-1.527 3.172-1.647 4.83a12.82 12.82 0 0 0 .022 1.563c.147 1.368.594 2.81 1.213 3.914.143.256.541.852.715 1.072.731.922 1.626 1.661 2.793 2.307.276.154.907.463.943.463.006 0-.048-.073-.12-.161-1.655-2.022-2.21-4.562-1.49-6.813a6.318 6.318 0 0 1 1.015-1.91c.077-.096.141-.167.144-.158l.078.407c.316 1.7.664 2.275 1.574 2.604l.15.055-.016-.297c-.027-.466-.02-1.924.01-2.223.089-.872.203-1.47.41-2.144a7.933 7.933 0 0 1 2.5-3.786c.02-.007-.004-.074.38 1.047.388 1.138.483 1.404.658 1.843.457 1.148.654 1.473 1.757 2.893.885 1.14 1.347 2.032 1.566 3.022.197.888.148 1.734-.152 2.643-.165.5-.263.723-.793 1.791-.253.51-.467.95-.475.977-.014.044.03.025.385-.16a8.633 8.633 0 0 0 1.038-.62c2.09-1.47 3.45-3.777 3.782-6.412.173-1.38.074-2.632-.34-4.328-.464-1.89-1.177-3.619-2.108-5.103l-.155-.247-.067.3c-.12.54-.328 1.098-.53 1.422a3.25 3.25 0 0 1-1.081 1.046 13.819 13.819 0 0 1-.027-.582c-.038-1.066-.135-1.879-.332-2.772-.68-3.096-2.369-5.596-5.153-7.634a26.012 26.012 0 0 0-1.161-.78l-.098-.056v.413Z" fill="#FF5C5C"/><path fill-rule="evenodd" clip-rule="evenodd" d="M25 48.864c13.18 0 23.864-10.684 23.864-23.864C48.864 11.82 38.18 1.136 25 1.136 11.82 1.136 1.136 11.82 1.136 25 1.136 38.18 11.82 48.864 25 48.864ZM25 50c13.807 0 25-11.193 25-25S38.807 0 25 0 0 11.193 0 25s11.193 25 25 25Z" fill="#FF5C5C"/><path fill-rule="evenodd" clip-rule="evenodd" d="m7.955 42.045 5.681-5.681.804.803-5.682 5.682-.803-.803ZM34.09 15.91l7.955-7.955.804.803-7.955 7.955-.803-.804Z" fill="#FF5C5C"/></svg>