<svg width="1170" height="30" fill="none" xmlns="http://www.w3.org/2000/svg"><path fill-rule="evenodd" clip-rule="evenodd" d="M572.927.158c-.591.272-1.039.937-1.406 2.087-.474 1.486-.628 3.181-.414 4.56l.043.275-.329.082c-.925.23-1.441.653-1.588 1.302-.069.305-.069.508.001 1.053.05.381.062.696.028.725a1.508 1.508 0 0 1-.296.142c-1.132.43-1.966 1.642-1.966 2.855 0 .905.302 1.604.986 2.283.372.37.468.5.402.554-.102.084-.864 1.407-1.012 1.757-.13.307-.135.854-.012 1.147.142.334.472.67 1.198 1.22.83.63.864.7.751 1.562-.162 1.23-.164 1.31-.05 1.699.194.66.671.988 1.874 1.29 1.114.278 1.149.312 1.418 1.36.226.875.394 1.252.683 1.539.45.444.626.465 2.595.306.385-.031.576-.018.7.047.094.05.379.365.633.701 1.17 1.546 1.681 1.642 3.425.644.671-.384.84-.446 1.067-.387.084.022.503.236.931.475 1.188.665 1.787.723 2.374.234.131-.11.416-.29.634-.404.387-.2 1.024-.768 1.302-1.162l.139-.197.572.08c1.725.238 2.323-.066 2.701-1.373.423-1.463.409-1.428.637-1.566.192-.117.292-.127.869-.09.782.053 1.194-.028 1.84-.36.77-.394 1.414-1.213 1.608-2.044.086-.37.084-1.075-.005-1.455a4.074 4.074 0 0 0-.274-.712l-.205-.411.341-.316c.44-.406.619-.77.619-1.259 0-.32-.048-.466-.317-.966-.174-.324-.422-.792-.552-1.04l-.235-.45.435-.457c.24-.25.517-.624.615-.83.369-.77.415-1.711.12-2.49-.286-.755-1.093-1.577-1.761-1.793a1.19 1.19 0 0 1-.297-.131c-.035-.032-.024-.358.026-.78.077-.639.075-.767-.023-1.1-.178-.603-.766-1.039-1.658-1.229l-.224-.048.054-.48c.087-.767.05-2.228-.073-2.906-.244-1.333-.688-2.5-1.175-3.087-.284-.343-.81-.613-1.195-.614-.794-.002-2.626.88-5.05 2.433-.838.536-.838.536-1.017.42-1.232-.795-2.584-.795-3.817 0l-.18.117-.836-.538c-1.809-1.163-3.207-1.91-4.169-2.228-.743-.245-1.031-.254-1.485-.046Zm1.307 1.084c.576.213 1.63.768 2.73 1.435 1.479.896 1.765 1.097 1.717 1.207a14.67 14.67 0 0 0-.199.536l-.154.436-3.728.035-.14.176c-.177.222-.177.427 0 .65l.14.175 3.735.035.116.369c.064.202.153.435.197.517.074.135.058.164-.174.308-1.19.742-3.526 1.948-4.217 2.178-.644.214-.894.196-1.141-.082-.571-.643-1.032-2.37-1.032-3.861 0-1.612.613-3.797 1.174-4.186.205-.141.452-.123.976.072Zm15.553-.043c.551.429 1.14 2.58 1.141 4.167 0 1.497-.494 3.299-1.068 3.894-.333.345-.892.213-2.519-.595-1.218-.605-3.028-1.651-3.005-1.737.01-.034.092-.274.183-.532l.165-.469 3.728-.035.14-.176a.654.654 0 0 0 .139-.324.654.654 0 0 0-.139-.325l-.14-.176-3.728-.035-.154-.436a14.67 14.67 0 0 0-.199-.536c-.031-.072.086-.184.413-.397.902-.586 2.368-1.443 3.125-1.826 1.167-.59 1.614-.698 1.918-.462Zm-7.432 2.277c.446.195.869.62 1.081 1.085.161.355.182.476.161.921-.028.597-.189.961-.616 1.396-.398.406-.849.585-1.475.588-.645.003-1.141-.219-1.585-.707-.394-.433-.539-.858-.506-1.49.075-1.45 1.598-2.38 2.94-1.793Zm-1.798 4.934c.497.162 1.4.163 1.884.002.383-.127.936-.412 1-.514.078-.125.254-.05 1.2.514 1.155.689 3.153 1.68 3.813 1.894.561.18 1.017.243 1.34.184.624-.116 1.221-.787 1.617-1.82.243-.63.201-.612.871-.37.465.167.523.321.421 1.12-.046.36-.117.675-.157.7a1.64 1.64 0 0 1-.378.086c-.481.065-1.138.414-1.573.835a3.074 3.074 0 0 0-.955 2.26c0 1.22.682 2.274 1.83 2.83.505.244.515.246 1.37.246h.861l.041.167c.022.092.213.454.423.804.498.828.575 1.047.453 1.282-.051.097-.213.271-.36.386l-.266.208-.332-.17a3.21 3.21 0 0 0-3.754.566c-1.217 1.203-1.257 3.07-.093 4.349l.32.351-.137.148c-.22.238-.35.543-.555 1.306-.349 1.296-.381 1.327-1.309 1.215-.842-.102-.776-.04-.809-.748-.024-.55-.057-.68-.282-1.142a3.125 3.125 0 0 0-1.505-1.496c-.468-.229-.586-.257-1.163-.282-.791-.034-1.348.098-1.904.453-1.255.802-1.813 2.377-1.307 3.691.172.447.172.466.013.466-.195 0-.593.182-1.262.576-1.009.594-1.117.576-1.763-.286-1.025-1.367-1.369-1.506-3.097-1.256-1.092.158-1.116.14-1.475-1.167-.396-1.44-.613-1.65-2.123-2.059-.898-.243-1.111-.353-1.176-.608-.025-.097.01-.58.077-1.073.199-1.465.061-1.784-1.189-2.735-.74-.564-.88-.733-.828-1 .058-.3.79-1.459 1.057-1.671.243-.195.305-.21.963-.247.631-.035.754-.064 1.206-.285 1.761-.86 2.34-2.948 1.271-4.582-.438-.67-1.292-1.237-2.005-1.334a1.48 1.48 0 0 1-.365-.085c-.04-.024-.111-.34-.157-.7-.102-.798-.044-.952.421-1.12.67-.24.628-.259.87.372.397 1.032.994 1.703 1.618 1.819.322.06.778-.003 1.34-.184.64-.205 2.767-1.265 3.923-1.954l.941-.56.381.248c.21.136.549.303.754.37Zm-2.085.363c-.514.23-.738.555-1.141 1.654-.363.99-.382 1.008-1.553 1.429-1.315.472-1.756 1.008-1.583 1.928.037.2.225.7.417 1.11.446.954.446 1.061.001 2.052-.19.424-.364.832-.387.908-.034.112-.136.154-.547.222-2.49.413-3.547 3.37-1.858 5.196.65.703 1.42 1.042 2.364 1.042.942 0 1.715-.34 2.361-1.038.34-.368.634-.9.722-1.306a1.66 1.66 0 0 1 .083-.288c.018-.03.159.196.314.5.393.772.667.961 1.39.958.485-.002.575-.027 1.373-.385.489-.22.951-.383 1.079-.383.127 0 .597.164 1.078.376 1.719.76 2.381.524 2.985-1.063.49-1.286.502-1.3 1.51-1.649 1.227-.425 1.595-.721 1.753-1.411.08-.35-.036-.805-.426-1.667-.454-1.003-.455-1.107-.007-2.064.523-1.118.578-1.635.231-2.188-.198-.318-.582-.551-1.416-.86-1.21-.45-1.166-.41-1.529-1.404-.401-1.096-.639-1.442-1.157-1.674-.512-.23-.881-.166-2.037.356-.91.41-1.071.407-2.039-.03-1.088-.492-1.465-.553-1.981-.321Zm1.605 1.321c.823.37.873.383 1.429.383s.606-.013 1.433-.382c.472-.21.935-.383 1.029-.383.244 0 .398.228.691 1.02.349.946.455 1.133.811 1.444.227.196.523.347 1.1.558 1.019.373 1.21.5 1.195.793-.006.122-.169.566-.362.988-.533 1.163-.549 1.585-.097 2.584.137.303.313.722.392.932l.143.381-.159.167c-.095.1-.467.279-.938.45-1.325.48-1.632.773-2.044 1.955-.437 1.254-.549 1.306-1.702.785-1.317-.594-1.682-.595-2.972-.002-1.15.528-1.239.491-1.673-.684a13.13 13.13 0 0 0-.348-.87c-.177-.345-.531-.675-.917-.856a3.663 3.663 0 0 1-.725-.481 4.186 4.186 0 0 0-.716-.496c-.207-.107-.377-.225-.377-.262 0-.037.095-.262.21-.502.4-.825.544-1.278.543-1.704 0-.453-.068-.673-.478-1.545-.345-.735-.377-1.002-.14-1.179.093-.07.533-.262.977-.428 1.246-.466 1.475-.696 1.938-1.943.327-.88.475-1.105.728-1.105.097 0 .56.172 1.029.382Zm-8.975 1.31c.728.367 1.132.974 1.174 1.77.034.63-.11 1.056-.505 1.49-.444.487-.939.707-1.585.704-.842-.005-1.51-.419-1.906-1.182-.206-.396-.251-1.127-.097-1.583.206-.615.887-1.22 1.528-1.358.425-.092 1.028-.023 1.391.16Zm22.654.007c.438.219.9.731 1.061 1.175.259.714.075 1.55-.475 2.15-.578.633-1.626.827-2.411.448-.471-.228-.951-.736-1.098-1.164-.402-1.164.232-2.377 1.451-2.776.32-.105 1.108-.016 1.472.167Zm-20.621 4.019c-.36.164-.528.406-.562.808-.037.442.133.77.488.936.626.293 1.303-.04 1.428-.702.06-.312-.123-.757-.385-.942-.251-.177-.701-.223-.969-.1Zm16.578.696c-.675.34-.718 1.251-.08 1.673.625.412 1.497-.069 1.498-.826.001-.499-.474-.964-.983-.964-.111 0-.307.052-.435.117ZM575.1 19.29c.418.2.779.557.988.977.137.275.165.43.165.933 0 .542-.021.638-.2.959a2.147 2.147 0 0 1-3.298.562c-.763-.662-.891-1.915-.284-2.78.202-.289.634-.607 1.02-.754.383-.145 1.199-.093 1.609.103Zm17.978.66c.448.228.741.52.965.963.176.349.207.484.207.923 0 .44-.031.574-.207.923-.364.72-.937 1.09-1.759 1.138-.681.038-1.166-.138-1.624-.59-1.093-1.08-.673-2.917.79-3.455.383-.14 1.264-.088 1.628.097Zm-6.015 1.675c-.676.355-.726 1.302-.089 1.692.339.207.896.156 1.175-.108.532-.504.391-1.338-.272-1.6-.353-.14-.524-.136-.814.016Zm-2.054 2.89c.407.176.872.628 1.082 1.052.547 1.105-.101 2.52-1.314 2.87-1.616.466-3.106-.998-2.637-2.592.348-1.184 1.727-1.823 2.869-1.33Zm-7.163.34c-.474.195-.743.715-.614 1.189.115.421.484.682.965.681 1.198 0 1.281-1.755.089-1.905a1.063 1.063 0 0 0-.44.035Z" fill="url(#a)"/><path fill-rule="evenodd" clip-rule="evenodd" d="M1170 17H601v-1h569v1Z" fill="url(#b)"/><path fill-rule="evenodd" clip-rule="evenodd" d="M562 17H0v-1h562v1Z" fill="url(#c)"/><defs><linearGradient id="a" x1="0" y1="14.999" x2="1170" y2="15" gradientUnits="userSpaceOnUse"><stop stop-color="#669100" stop-opacity="0"/><stop offset=".497" stop-color="#669100"/><stop offset="1" stop-color="#669100" stop-opacity="0"/></linearGradient><linearGradient id="b" x1="0" y1="14.999" x2="1170" y2="15" gradientUnits="userSpaceOnUse"><stop stop-color="#669100" stop-opacity="0"/><stop offset=".497" stop-color="#669100"/><stop offset="1" stop-color="#669100" stop-opacity="0"/></linearGradient><linearGradient id="c" x1="0" y1="14.999" x2="1170" y2="15" gradientUnits="userSpaceOnUse"><stop stop-color="#669100" stop-opacity="0"/><stop offset=".497" stop-color="#669100"/><stop offset="1" stop-color="#669100" stop-opacity="0"/></linearGradient></defs></svg>