<svg width="1170" height="30" viewBox="0 0 1170 30" fill="none" xmlns="http://www.w3.org/2000/svg">
<path fill-rule="evenodd" clip-rule="evenodd" d="M572.927 0.158353C572.336 0.430373 571.888 1.09512 571.521 2.24523C571.047 3.73126 570.893 5.42614 571.107 6.80506L571.15 7.0799L570.821 7.16168C569.896 7.39191 569.38 7.81524 569.233 8.46438C569.164 8.76942 569.164 8.97192 569.234 9.51669C569.284 9.8983 569.296 10.2134 569.262 10.2423C569.23 10.2703 569.096 10.334 568.966 10.3837C567.834 10.8147 567 12.0262 567 13.2394C567 14.144 567.302 14.8427 567.986 15.5217C568.358 15.8917 568.454 16.0229 568.388 16.0763C568.286 16.1601 567.524 17.4825 567.376 17.8333C567.246 18.1399 567.241 18.6869 567.364 18.9795C567.506 19.3138 567.836 19.6504 568.562 20.2006C569.392 20.8295 569.426 20.8996 569.313 21.7623C569.151 22.9921 569.149 23.0722 569.263 23.4607C569.457 24.1211 569.934 24.4489 571.137 24.7502C572.251 25.0293 572.286 25.0626 572.555 26.1103C572.781 26.9857 572.949 27.3635 573.238 27.6496C573.688 28.0943 573.864 28.1151 575.833 27.9561C576.218 27.925 576.409 27.938 576.533 28.0035C576.627 28.0531 576.912 28.3683 577.166 28.7042C578.336 30.2496 578.847 30.3456 580.591 29.3476C581.262 28.9636 581.431 28.9024 581.658 28.9611C581.742 28.9828 582.161 29.1965 582.589 29.4359C583.777 30.1005 584.376 30.1594 584.963 29.6696C585.094 29.5607 585.379 29.3793 585.597 29.2663C585.984 29.0661 586.621 28.4976 586.899 28.1037L587.038 27.9075L587.61 27.9865C589.335 28.2247 589.933 27.9206 590.311 26.6144C590.734 25.1511 590.72 25.1864 590.948 25.0477C591.14 24.9307 591.24 24.9205 591.817 24.9588C592.599 25.0107 593.011 24.93 593.657 24.5988C594.427 24.2043 595.071 23.3854 595.265 22.5539C595.351 22.1846 595.349 21.4786 595.26 21.0992C595.222 20.9334 595.098 20.6128 594.986 20.3868L594.781 19.9759L595.122 19.6602C595.562 19.2536 595.741 18.8902 595.741 18.4014C595.741 18.0802 595.693 17.9349 595.424 17.4345C595.25 17.1107 595.002 16.643 594.872 16.3952L594.637 15.9448L595.072 15.4884C595.312 15.2374 595.589 14.8639 595.687 14.6585C596.056 13.8873 596.102 12.9469 595.807 12.1686C595.521 11.4125 594.714 10.5914 594.046 10.3753C593.916 10.3332 593.782 10.2739 593.749 10.2438C593.714 10.212 593.725 9.88591 593.775 9.46485C593.852 8.82502 593.85 8.69695 593.752 8.36484C593.574 7.76132 592.986 7.32546 592.094 7.13516L591.87 7.0874L591.924 6.60786C592.011 5.84023 591.974 4.37879 591.851 3.70111C591.607 2.36814 591.163 1.20115 590.676 0.613506C590.392 0.270952 589.866 0.000941194 589.481 3.4238e-06C588.687 -0.00200608 586.855 0.880636 584.431 2.43298C583.593 2.96918 583.593 2.96918 583.414 2.85344C582.182 2.05827 580.83 2.05848 579.597 2.85384L579.417 2.97005L578.581 2.43204C576.772 1.26907 575.374 0.521671 574.412 0.204169C573.669 -0.0413924 573.381 -0.0503011 572.927 0.158353ZM574.234 1.24168C574.81 1.45549 575.864 2.00991 576.964 2.67673C578.443 3.57311 578.729 3.77426 578.681 3.88438C578.657 3.93964 578.567 4.18078 578.482 4.42025L578.328 4.85564L574.6 4.89121L574.46 5.06671C574.283 5.28929 574.283 5.49373 574.46 5.71631L574.6 5.89181L578.335 5.92738L578.451 6.29579C578.515 6.49841 578.604 6.73125 578.648 6.81317C578.722 6.94841 578.706 6.97681 578.474 7.12149C577.284 7.86294 574.948 9.06944 574.257 9.29893C573.613 9.51267 573.363 9.49459 573.116 9.21654C572.545 8.5745 572.084 6.8478 572.084 5.35588C572.084 3.74405 572.697 1.55898 573.258 1.17041C573.463 1.02874 573.71 1.04676 574.234 1.24168ZM589.787 1.19934C590.338 1.62791 590.927 3.77868 590.928 5.36599C590.928 6.8628 590.434 8.66493 589.86 9.25981C589.527 9.60531 588.968 9.47335 587.341 8.66513C586.123 8.0602 584.313 7.01372 584.336 6.92825C584.346 6.89355 584.428 6.65415 584.519 6.39626L584.684 5.92738L588.412 5.89181L588.552 5.71631C588.628 5.61986 588.691 5.4737 588.691 5.39151C588.691 5.30932 588.628 5.16316 588.552 5.06671L588.412 4.89121L584.684 4.85564L584.53 4.42025C584.445 4.18078 584.355 3.93964 584.331 3.88438C584.3 3.81244 584.417 3.69951 584.744 3.4871C585.646 2.90073 587.112 2.04381 587.869 1.66106C589.036 1.07134 589.483 0.963495 589.787 1.19934ZM582.355 3.47611C582.801 3.67131 583.224 4.09625 583.436 4.56111C583.597 4.91579 583.618 5.03717 583.597 5.482C583.569 6.07943 583.408 6.44329 582.981 6.87801C582.583 7.28359 582.132 7.46338 581.506 7.46592C580.861 7.46854 580.365 7.24749 579.921 6.75931C579.527 6.32606 579.382 5.90092 579.415 5.2692C579.49 3.8182 581.013 2.88961 582.355 3.47611ZM580.557 8.40986C581.054 8.57236 581.957 8.57343 582.441 8.41213C582.824 8.28466 583.377 7.99998 583.441 7.89803C583.519 7.77331 583.695 7.84853 584.641 8.4122C585.796 9.10092 587.794 10.0928 588.454 10.3058C589.015 10.4868 589.471 10.5494 589.794 10.4896C590.418 10.3739 591.015 9.70251 591.411 8.67069C591.654 8.04004 591.612 8.05813 592.282 8.29947C592.747 8.46693 592.805 8.62146 592.703 9.41916C592.657 9.77954 592.586 10.0947 592.546 10.1195C592.505 10.1444 592.335 10.1832 592.168 10.2059C591.687 10.2709 591.03 10.6197 590.595 11.0407C589.97 11.6448 589.64 12.426 589.64 13.3007C589.64 14.521 590.322 15.5749 591.47 16.1308C591.975 16.3749 591.985 16.3768 592.84 16.3768H593.701L593.742 16.5443C593.764 16.6364 593.955 16.9981 594.165 17.3481C594.663 18.1761 594.74 18.3952 594.618 18.6295C594.567 18.7273 594.405 18.9011 594.258 19.0157L593.992 19.2242L593.66 19.0539C592.398 18.4067 590.906 18.6317 589.906 19.6202C588.689 20.8227 588.649 22.6896 589.813 23.9687L590.133 24.3203L589.996 24.468C589.776 24.7063 589.646 25.0109 589.441 25.7738C589.092 27.0703 589.06 27.1008 588.132 26.9888C587.29 26.8871 587.356 26.9482 587.323 26.2409C587.299 25.6919 587.266 25.5606 587.041 25.0993C586.709 24.4197 586.226 23.9401 585.536 23.6029C585.068 23.3743 584.95 23.3458 584.373 23.3209C583.582 23.2867 583.025 23.4193 582.469 23.7745C581.214 24.5763 580.656 26.1507 581.162 27.4653C581.334 27.9124 581.334 27.9315 581.175 27.9315C580.98 27.9315 580.582 28.1126 579.913 28.5067C578.904 29.1006 578.796 29.0832 578.15 28.2208C577.125 26.8542 576.781 26.7147 575.053 26.9651C573.961 27.1233 573.937 27.1044 573.578 25.7984C573.182 24.3581 572.965 24.1475 571.455 23.7391C570.557 23.4962 570.344 23.386 570.279 23.1313C570.254 23.0342 570.289 22.5513 570.356 22.0583C570.555 20.5926 570.417 20.274 569.167 19.3226C568.427 18.7594 568.287 18.5896 568.339 18.3224C568.397 18.0227 569.129 16.8643 569.396 16.6517C569.639 16.4573 569.701 16.4413 570.359 16.4051C570.99 16.3702 571.113 16.3413 571.565 16.1203C573.326 15.2605 573.905 13.1725 572.836 11.538C572.398 10.8683 571.544 10.3007 570.831 10.204C570.671 10.1824 570.507 10.1444 570.466 10.1195C570.426 10.0947 570.355 9.77954 570.309 9.41916C570.207 8.62146 570.265 8.46693 570.73 8.29947C571.4 8.05813 571.358 8.04004 571.6 8.67069C571.997 9.70251 572.594 10.3739 573.218 10.4896C573.54 10.5493 573.996 10.4869 574.558 10.3065C575.198 10.1007 577.325 9.04131 578.481 8.35212L579.422 7.79133L579.803 8.03971C580.013 8.17628 580.352 8.34287 580.557 8.40986ZM578.472 8.77251C577.958 9.00326 577.734 9.32807 577.331 10.4268C576.968 11.4173 576.949 11.4351 575.778 11.8557C574.463 12.3281 574.022 12.8642 574.195 13.7837C574.232 13.984 574.42 14.4837 574.612 14.894C575.058 15.8478 575.058 15.9552 574.613 16.9462C574.423 17.3698 574.249 17.7784 574.226 17.8542C574.192 17.9661 574.09 18.0077 573.679 18.0758C571.189 18.4892 570.132 21.4459 571.821 23.2721C572.471 23.9746 573.241 24.3144 574.185 24.3144C575.127 24.3144 575.9 23.9745 576.546 23.2763C576.886 22.9083 577.18 22.3767 577.268 21.9699C577.296 21.841 577.334 21.7115 577.351 21.682C577.369 21.6526 577.51 21.878 577.665 22.1827C578.058 22.9541 578.332 23.143 579.055 23.1402C579.54 23.1383 579.63 23.113 580.428 22.7551C580.917 22.5358 581.379 22.3718 581.507 22.3718C581.634 22.3718 582.104 22.5364 582.585 22.7484C584.304 23.5076 584.966 23.2718 585.57 21.6846C586.06 20.3987 586.072 20.3857 587.08 20.0361C588.307 19.611 588.675 19.3146 588.833 18.6247C588.913 18.2755 588.797 17.8196 588.407 16.9578C587.953 15.9545 587.952 15.8511 588.4 14.894C588.923 13.7758 588.978 13.2595 588.631 12.7057C588.433 12.388 588.049 12.155 587.215 11.8454C586.005 11.3963 586.049 11.4361 585.686 10.4423C585.285 9.34555 585.047 9.00005 584.529 8.76795C584.017 8.538 583.648 8.60243 582.492 9.12363C581.582 9.53364 581.421 9.53136 580.453 9.09403C579.365 8.6023 578.988 8.54108 578.472 8.77251ZM580.077 10.0943C580.9 10.4632 580.95 10.4767 581.506 10.477C582.062 10.4773 582.112 10.4639 582.939 10.0946C583.411 9.88416 583.874 9.71195 583.968 9.71195C584.212 9.71195 584.366 9.93969 584.659 10.7326C585.008 11.6782 585.114 11.8652 585.47 12.1755C585.697 12.3723 585.993 12.5231 586.57 12.7341C587.589 13.1073 587.78 13.2338 587.765 13.5267C587.759 13.6486 587.596 14.0931 587.403 14.5145C586.87 15.6783 586.854 16.0996 587.306 17.099C587.443 17.4018 587.619 17.821 587.698 18.0308L587.841 18.412L587.682 18.5788C587.587 18.6794 587.215 18.8576 586.744 19.0281C585.419 19.5085 585.112 19.8021 584.7 20.9843C584.263 22.2381 584.151 22.2899 582.998 21.7694C581.681 21.1746 581.316 21.1743 580.026 21.7668C578.876 22.2948 578.787 22.2584 578.353 21.0832C578.213 20.7052 578.057 20.3134 578.005 20.2125C577.828 19.8677 577.474 19.5376 577.088 19.3572C576.876 19.258 576.55 19.0414 576.363 18.8758C576.177 18.7103 575.855 18.4873 575.647 18.3802C575.44 18.2731 575.27 18.1552 575.27 18.1184C575.27 18.0815 575.365 17.8555 575.48 17.616C575.88 16.791 576.024 16.3382 576.023 15.912C576.023 15.4586 575.955 15.2395 575.545 14.3673C575.2 13.6316 575.168 13.3652 575.405 13.1883C575.498 13.1187 575.938 12.926 576.382 12.76C577.628 12.2938 577.857 12.0641 578.32 10.8168C578.647 9.93614 578.795 9.71195 579.048 9.71195C579.145 9.71195 579.608 9.88403 580.077 10.0943ZM571.102 11.4044C571.83 11.7705 572.234 12.3783 572.276 13.1733C572.31 13.8048 572.166 14.2295 571.771 14.6634C571.327 15.1511 570.832 15.3711 570.186 15.3676C569.344 15.3632 568.676 14.9491 568.28 14.1861C568.074 13.7895 568.029 13.0588 568.183 12.6029C568.389 11.9884 569.07 11.3837 569.711 11.2446C570.136 11.1526 570.739 11.2219 571.102 11.4044ZM593.756 11.4105C594.194 11.6297 594.656 12.1421 594.817 12.5861C595.076 13.3003 594.892 14.1356 594.342 14.7367C593.764 15.369 592.716 15.5633 591.931 15.1836C591.46 14.9558 590.98 14.4478 590.833 14.0201C590.431 12.8557 591.065 11.6425 592.284 11.2439C592.604 11.139 593.392 11.2281 593.756 11.4105ZM573.135 15.4295C572.775 15.594 572.607 15.836 572.573 16.2383C572.536 16.6803 572.706 17.0072 573.061 17.1735C573.687 17.467 574.364 17.1348 574.489 16.4719C574.549 16.1599 574.366 15.7146 574.104 15.5297C573.853 15.3532 573.403 15.3067 573.135 15.4295ZM589.713 16.1258C589.038 16.4658 588.995 17.3773 589.633 17.7989C590.258 18.2114 591.13 17.7303 591.131 16.9728C591.132 16.4743 590.657 16.0086 590.148 16.0086C590.037 16.0086 589.841 16.0613 589.713 16.1258ZM575.1 19.2904C575.518 19.4907 575.879 19.847 576.088 20.267C576.225 20.5419 576.253 20.6971 576.253 21.1996C576.253 21.7417 576.232 21.8384 576.053 22.1588C575.381 23.3571 573.799 23.627 572.755 22.7214C571.992 22.0592 571.864 20.8059 572.471 19.9403C572.673 19.6522 573.105 19.3335 573.491 19.187C573.874 19.042 574.69 19.0943 575.1 19.2904ZM593.078 19.9492C593.526 20.1777 593.819 20.47 594.043 20.9131C594.219 21.2619 594.25 21.3966 594.25 21.836C594.25 22.2753 594.219 22.4101 594.043 22.7589C593.679 23.4795 593.106 23.8498 592.284 23.8967C591.603 23.9354 591.118 23.7593 590.66 23.3064C589.567 22.2264 589.987 20.3903 591.45 19.8523C591.833 19.7112 592.714 19.7636 593.078 19.9492ZM587.063 21.6251C586.387 21.9802 586.337 22.9275 586.974 23.3165C587.313 23.5237 587.87 23.4728 588.149 23.2092C588.681 22.705 588.54 21.8711 587.877 21.6092C587.524 21.4695 587.353 21.4729 587.063 21.6251ZM585.009 24.515C585.416 24.6911 585.881 25.1428 586.091 25.567C586.638 26.6716 585.99 28.0861 584.777 28.4364C583.161 28.9029 581.671 27.4385 582.14 25.845C582.488 24.6607 583.867 24.0216 585.009 24.515ZM577.846 24.8553C577.372 25.05 577.103 25.57 577.232 26.0435C577.347 26.4655 577.716 26.7259 578.197 26.7255C579.395 26.7245 579.478 24.9699 578.286 24.8198C578.137 24.8011 577.939 24.817 577.846 24.8553Z" fill="url(#paint0_linear_17:177)"/>
<path fill-rule="evenodd" clip-rule="evenodd" d="M1170 17H601V16H1170V17Z" fill="url(#paint1_linear_17:177)"/>
<path fill-rule="evenodd" clip-rule="evenodd" d="M562 17H0V16H562V17Z" fill="url(#paint2_linear_17:177)"/>
<defs>
<linearGradient id="paint0_linear_17:177" x1="0" y1="14.9995" x2="1170" y2="14.9997" gradientUnits="userSpaceOnUse">
<stop stop-color="#669100" stop-opacity="0"/>
<stop offset="0.497222" stop-color="#669100"/>
<stop offset="1" stop-color="#669100" stop-opacity="0"/>
</linearGradient>
<linearGradient id="paint1_linear_17:177" x1="0" y1="14.9995" x2="1170" y2="14.9997" gradientUnits="userSpaceOnUse">
<stop stop-color="#669100" stop-opacity="0"/>
<stop offset="0.497222" stop-color="#669100"/>
<stop offset="1" stop-color="#669100" stop-opacity="0"/>
</linearGradient>
<linearGradient id="paint2_linear_17:177" x1="0" y1="14.9995" x2="1170" y2="14.9997" gradientUnits="userSpaceOnUse">
<stop stop-color="#669100" stop-opacity="0"/>
<stop offset="0.497222" stop-color="#669100"/>
<stop offset="1" stop-color="#669100" stop-opacity="0"/>
</linearGradient>
</defs>
</svg>
