<svg width="50" height="52" viewBox="0 0 50 52" fill="none" xmlns="http://www.w3.org/2000/svg">
<path fill-rule="evenodd" clip-rule="evenodd" d="M23.2422 0.252468C16.6271 1.29266 11.5484 4.90586 9.67885 9.90237C9.04922 11.5847 8.66586 13.9417 8.39548 17.7908C8.10577 21.9172 7.56122 24.9919 6.61678 27.8337C5.31448 31.7513 3.67605 34.5584 1.22887 37.0643C0.488254 37.8227 -0.0622729 38.4432 0.00567128 38.4432C0.318892 38.4432 3.47421 36.2572 4.86976 35.0735C6.82161 33.418 8.1783 31.7617 9.20344 29.783C10.3394 27.5904 10.8339 26.1722 11.8863 22.0912C12.9467 17.9792 13.8159 15.5198 14.7906 13.8739C15.6894 12.3565 17.7971 10.2679 19.3795 9.32676C22.6823 7.36262 27.959 6.65393 32.308 7.5903C35.8529 8.35351 36.8238 8.45192 38.4838 8.21582C39.3334 8.09496 40.404 7.84504 40.8626 7.66045L41.6967 7.32474L40.5968 6.69983C39.9919 6.35631 38.6852 5.39869 37.693 4.57195C34.5797 1.9779 32.7566 1.04634 29.4189 0.344662C27.3828 -0.0836392 25.5531 -0.110897 23.2422 0.252468ZM44.7805 8.90427C46.4458 10.5593 47.9147 12.8632 48.7139 15.0736C49.2068 16.4373 49.3162 17.0883 49.3957 19.1366C49.529 22.5654 49.2104 23.8479 47.2458 27.7884C46.3852 29.5148 45.4597 31.6982 45.1895 32.6402C44.231 35.9804 44.0622 40.051 44.7638 42.9006L45.0234 43.9548L44.8923 42.7523C44.8201 42.0909 44.7663 40.3322 44.7727 38.844C44.7885 35.1511 45.3709 32.8422 47.3508 28.6225C49.0809 24.9354 49.5882 23.4907 49.8938 21.3813C50.4898 17.2691 48.5234 11.9252 45.336 8.99506C43.6222 7.41954 43.2208 7.35401 44.7805 8.90427ZM38.5264 21.5208C38.2814 21.6934 37.8924 22.2121 37.6619 22.6732C37.4314 23.1344 37.105 23.6695 36.9364 23.8625C36.6539 24.1856 36.6702 24.2133 37.1434 24.2133C37.426 24.2133 37.9349 23.9782 38.2742 23.691C38.7773 23.2653 38.9459 23.2144 39.1862 23.415C39.5747 23.7393 39.5617 25.0486 39.1577 26.3177C38.8239 27.3655 38.706 30.9779 38.9905 31.4407C39.0835 31.5922 39.287 31.2128 39.5169 30.4594C39.7231 29.784 40.3013 28.6296 40.8019 27.894C41.8224 26.3947 42.2705 25.2923 42.2705 24.2818C42.2705 22.0896 40.0467 20.4498 38.5264 21.5208ZM20.2534 22.0311C20.0343 22.1612 19.3022 22.7955 18.627 23.4408C17.9515 24.0862 17.2565 24.6141 17.0828 24.6141C16.9088 24.6141 16.7666 24.7159 16.7666 24.8404C16.7666 25.2761 18.6967 24.8181 20.4844 23.9583C22.1874 23.1392 22.3113 23.111 24.2115 23.111H26.1773L24.9089 22.5295C23.4761 21.8727 20.9719 21.6046 20.2534 22.0311ZM32.5432 25.7054C32.1841 26.4023 31.3915 27.5467 30.7818 28.2484L29.6736 29.5244L30.941 28.2183C31.6547 27.4827 32.4543 26.4021 32.7713 25.7449C33.5362 24.1592 33.3563 24.1281 32.5432 25.7054ZM13.048 25.015C13.0942 25.2905 13.2773 26.0535 13.455 26.7105C13.838 28.1279 13.8567 28.9665 13.5475 30.8508C13.3494 32.0564 13.3624 32.3502 13.6395 32.9346C14.0988 33.9037 14.9881 34.3061 16.607 34.2782C18.0001 34.2542 19.0189 33.8846 19.2321 33.326C19.3269 33.0773 19.2359 33.0984 18.8308 33.4188C18.1131 33.9868 16.4258 33.9944 15.7163 33.4331C15.0518 32.9074 14.5756 31.4537 14.5716 29.9397C14.57 29.2703 14.4507 28.2267 14.3066 27.6204C14.0305 26.4586 12.8961 24.1103 13.048 25.015ZM21.7478 25.6661C20.1588 25.7703 18.8139 25.9 18.7591 25.9543C18.5477 26.1638 19.8868 27.015 20.7035 27.1901C21.8634 27.4391 23.0067 27.1571 24.2882 26.3065C25.4044 25.5655 25.5405 25.3978 24.9856 25.4463C24.7937 25.4629 23.3368 25.5619 21.7478 25.6661ZM24.6756 32.0315C26.0229 32.2295 26.951 32.8246 27.7329 33.9916C28.1425 34.6033 28.3145 34.7595 28.2214 34.4348C27.806 32.9877 26.1176 31.8092 24.5242 31.8543L23.6407 31.8794L24.6756 32.0315ZM15.3963 35.0242C14.0004 35.381 12.8927 36.658 12.6672 38.1712C12.5269 39.112 12.6913 40.131 13.3901 42.6521C13.8916 44.4617 13.8171 46.3611 13.188 47.7913C12.7794 48.7204 12.7792 48.729 13.1737 48.3699C13.8944 47.7139 14.7482 46.1787 15.0727 44.9549C15.3682 43.8404 15.366 43.6271 15.0399 41.9772L14.6886 40.2001L15.1518 39.8227C15.8381 39.2639 17.3958 39.3241 18.7587 39.9622C19.6222 40.3664 20.7818 41.3986 24.238 44.8391C26.6492 47.2393 29.0549 49.4971 29.5839 49.8562C31.2827 51.0094 32.7609 51.4912 36.0938 51.9785C36.6652 52.0618 36.4967 51.923 35.1603 51.2087C31.6511 49.3329 30.1558 47.7376 28.1808 43.7614C25.5919 38.5494 23.7758 36.7144 19.9601 35.4543C18.4961 34.9709 16.3838 34.7719 15.3963 35.0242ZM37.9359 36.0882C37.8263 36.2261 37.6691 36.5642 37.5864 36.8398C36.9344 39.016 35.2328 41.2297 32.2084 43.8365L31.2122 44.6954L32.1088 44.073C33.4936 43.1118 35.1167 41.6676 36.0364 40.5781C36.8059 39.6662 38.0662 37.3595 38.3796 36.2887C38.5223 35.8012 38.2586 35.6822 37.9359 36.0882ZM17.6518 41.5201C18.256 42.1278 18.3251 43.1968 17.8602 44.7382C17.2968 46.607 17.606 48.9068 18.5122 49.5842C19.4616 50.2941 22.0293 50.0454 23.9266 49.0597C25.2058 48.3951 25.1942 48.2831 23.9057 48.8565C23.4209 49.0722 22.3988 49.3525 21.6344 49.4796C20.4575 49.675 20.1301 49.6622 19.4955 49.3954C18.1362 48.8242 17.6064 46.7517 18.2631 44.5743C18.4263 44.0332 18.5598 43.3475 18.5598 43.0507C18.5598 42.4703 17.8294 41.2347 17.4028 41.0938C17.2595 41.0465 17.3717 41.2383 17.6518 41.5201Z" fill="#FF5C5C"/>
</svg>
