<svg width="73" height="50" viewBox="0 0 73 50" fill="none" xmlns="http://www.w3.org/2000/svg">
<path fill-rule="evenodd" clip-rule="evenodd" d="M18.0336 0.361079C17.7224 0.64534 9.05721 11.5334 6.40428 14.9737C5.29169 16.4166 5.74533 17.0063 8.54736 17.7591C9.96646 18.1404 10.5698 18.3711 10.5157 18.512C10.4727 18.6238 8.45562 20.9932 6.03309 23.7776C3.13265 27.1111 1.59573 29.0022 1.53251 29.3155C1.46016 29.6735 1.53088 29.8992 1.81816 30.2278C2.15366 30.6118 2.52046 30.7297 4.85776 31.2053C6.31971 31.5028 7.54638 31.7762 7.58353 31.8132C7.62084 31.85 5.92962 33.9284 3.82566 36.4318C1.15464 39.6097 0 41.1013 0 41.3738C0 42.0362 0.63158 42.5712 1.62946 42.7543C4.56462 43.2931 10.6909 43.8947 15.6836 44.1346C16.8262 44.1896 17.7612 44.2647 17.7612 44.3014C17.7612 44.3382 17.404 44.8572 16.9673 45.4548C16.04 46.724 15.9034 47.076 16.1198 47.6395C16.3993 48.3674 16.6655 48.4392 21.346 49.0471C29.9355 50.1625 39.8466 50.3062 48.3136 49.4385C51.9683 49.0639 55.603 48.5403 56.1768 48.3061C56.7617 48.0673 57.1025 47.4257 56.9325 46.883C56.8737 46.6951 56.3962 46.0381 55.8717 45.423C55.347 44.808 54.9351 44.289 54.9561 44.2695C54.9771 44.2501 56.6328 44.1537 58.6355 44.0551C62.9081 43.8449 66.2439 43.5267 69.739 42.996C72.0213 42.6496 72.2979 42.5723 72.6313 42.1885C72.8341 41.9551 73 41.5885 73 41.3738C73 41.1013 71.8454 39.6097 69.1743 36.4318C67.0704 33.9284 65.3764 31.8527 65.4103 31.8193C65.4442 31.7857 66.6702 31.5139 68.1351 31.2153C70.4872 30.7355 70.8429 30.6206 71.1809 30.2317C71.469 29.9001 71.5398 29.6735 71.4673 29.315C71.4041 29.0017 69.8638 27.1037 66.9609 23.7616C64.5351 20.969 62.517 18.598 62.4761 18.4925C62.4271 18.3661 63.1007 18.1148 64.4497 17.7558C66.5949 17.185 67.1352 16.8455 67.1328 16.0688C67.1313 15.6024 67.285 15.807 60.7217 7.52713C56.6754 2.42253 54.7596 0.127476 54.489 0.060202C54.274 0.00680235 53.9224 0.00680235 53.7073 0.060202C53.4428 0.126024 51.8826 1.93242 48.8795 5.65007C46.4391 8.6711 44.3698 11.1188 44.2809 11.0894C44.1921 11.0602 42.6014 8.97005 40.7462 6.44477C37.2144 1.63751 36.9665 1.38648 36.0635 1.70123C35.7524 1.80965 34.6585 3.17174 32.2538 6.44477C30.3986 8.97005 28.808 11.0602 28.7191 11.0894C28.6302 11.1188 26.5671 8.67885 24.1345 5.66749C21.7019 2.65598 19.5966 0.148448 19.4563 0.0950483C18.9549 -0.0953192 18.425 0.00373679 18.0336 0.361079ZM23.0421 8.42524C25.2459 11.1523 27.0491 13.418 27.0491 13.4598C27.0491 13.5018 26.0225 14.9318 24.7679 16.6378C22.3429 19.9349 22.1166 20.4431 22.7797 21.0997C22.9424 21.2607 24.1009 21.6682 25.3796 22.0143C26.973 22.4455 27.6507 22.6965 27.5714 22.8261C27.5081 22.9291 25.33 25.3904 22.731 28.2954C20.132 31.2005 17.9029 33.7849 17.7776 34.0389C17.592 34.4144 17.587 34.5901 17.7507 34.9817C17.9925 35.5595 18.2275 35.6589 20.8979 36.3125C22.0463 36.5935 22.972 36.9021 22.968 37.0026C22.9639 37.1025 22.2435 38.1643 21.3672 39.3622L19.7739 41.5401L16.4455 41.5159C14.615 41.5026 12.164 41.4124 10.9989 41.3153C7.90176 41.0574 4.29673 40.628 4.07105 40.4899C3.94004 40.4097 5.08963 38.9266 7.54263 36.0116C9.55974 33.6144 11.2609 31.4949 11.323 31.3013C11.4846 30.7971 11.1252 30.0618 10.6182 29.86C10.3795 29.7649 9.08492 29.4629 7.74142 29.1888C6.39777 28.9147 5.28321 28.6752 5.26447 28.6566C5.24557 28.6379 6.99611 26.5926 9.15466 24.1112C14.0471 18.4863 14.3393 18.1233 14.3393 17.6669C14.3393 16.9132 13.847 16.6033 11.6714 15.9877C10.5278 15.664 9.59135 15.328 9.59021 15.2407C9.58761 15.0265 18.7918 3.38437 18.9277 3.43035C18.9867 3.45036 20.8382 5.69798 23.0421 8.42524ZM58.8843 9.35062C61.446 12.5869 63.4885 15.2809 63.4233 15.3375C63.3581 15.3941 62.4686 15.6673 61.4466 15.9446C60.4246 16.2219 59.4176 16.5597 59.2087 16.6953C58.75 16.9927 58.5582 17.64 58.7868 18.1191C58.8791 18.3122 60.9392 20.7531 63.365 23.5436C65.7909 26.334 67.7536 28.6387 67.7267 28.6653C67.7 28.692 66.584 28.9318 65.2468 29.1984C63.9099 29.4649 62.6205 29.7617 62.3818 29.858C61.8756 30.0618 61.5154 30.7973 61.676 31.2984C61.7376 31.4904 63.4639 33.6304 65.5123 36.0539C68.8209 39.9683 69.1967 40.4702 68.8779 40.5488C67.2006 40.9619 58.5555 41.6226 54.9129 41.616L52.5502 41.6118L50.6512 39.398C49.6069 38.1805 48.7417 37.112 48.7286 37.0239C48.7158 36.9357 50.0102 36.6006 51.6053 36.2792C53.2005 35.9579 54.6271 35.6438 54.7757 35.581C54.9245 35.5184 55.137 35.2496 55.2483 34.9838C55.4132 34.5898 55.4083 34.4156 55.2224 34.0403C55.0971 33.7872 52.803 31.1274 50.1244 28.1297C45.5901 23.0553 45.2812 22.6712 45.6434 22.56C45.8574 22.4944 46.9066 22.2062 47.975 21.9199C51.3241 21.0224 51.332 20.8527 48.2243 16.6272C46.9654 14.9155 45.9572 13.4616 45.9838 13.3964C46.1047 13.1005 54.0286 3.39486 54.1217 3.42858C54.1794 3.44955 56.3224 6.11437 58.8843 9.35062ZM41.888 12.3366C45.421 17.1492 47.0263 19.4604 46.888 19.535C46.3154 19.8436 43.4259 20.4868 42.612 20.4868C40.0231 20.4868 36.1889 18.6189 32.1819 15.4053C31.3753 14.7583 30.5917 14.0937 30.4405 13.9281C30.1783 13.6413 30.3102 13.4303 33.2753 9.38853C34.9857 7.05701 36.4524 5.17173 36.5347 5.199C36.6168 5.2261 39.0258 8.43798 41.888 12.3366ZM19.5001 11.1367C18.9482 11.5665 18.7907 12.385 19.1335 13.0413C19.6205 13.974 20.6557 14.155 21.4964 13.4546C21.9122 13.1083 21.9978 12.9194 21.9978 12.3473C21.9978 11.0149 20.5547 10.3154 19.5001 11.1367ZM51.4023 12.8164C51.0972 13.1183 51.0022 13.383 51.0022 13.9314C51.0022 14.536 51.0819 14.7166 51.5036 15.0679C51.7793 15.2977 52.1862 15.4856 52.4078 15.4856C53.4484 15.4856 54.2374 14.5441 54.0195 13.5623C53.7761 12.4647 52.2085 12.018 51.4023 12.8164ZM39.1704 14.0304C38.6846 14.2247 38.1295 14.9737 38.1295 15.4348C38.1295 16.4262 39.1088 17.2549 40.0143 17.03C40.7037 16.8587 41.2254 16.2268 41.2254 15.5631C41.2254 14.773 40.9776 14.3721 40.3214 14.1006C39.698 13.8428 39.6473 13.8397 39.1704 14.0304ZM29.9007 16.8619C32.9769 19.4878 36.791 21.7121 39.7128 22.5841L40.8888 22.935L39.8888 24.413C35.9272 30.2686 31.5626 33.7638 27.1364 34.6248L25.8221 34.8805L23.6248 34.3581C22.4162 34.0708 21.4017 33.8135 21.3703 33.7864C21.3388 33.7591 23.5226 31.2622 26.2233 28.2377C28.924 25.2131 31.2026 22.5586 31.287 22.3387C31.4826 21.8294 31.259 21.2236 30.7635 20.9198C30.5578 20.7938 29.4729 20.456 28.3527 20.1688C27.2324 19.8818 26.2246 19.5974 26.113 19.5366C25.9725 19.4603 26.3162 18.8698 27.2297 17.6181C28.0393 16.5084 28.6214 15.8518 28.7361 15.9186C28.8389 15.9785 29.3629 16.4029 29.9007 16.8619ZM47.7177 29.2792C49.8601 31.6749 51.5976 33.6534 51.5786 33.676C51.5595 33.6986 50.2305 33.9771 48.6252 34.2947C47.02 34.6124 45.5427 34.976 45.3424 35.1027C44.8842 35.3927 44.713 36.038 44.9548 36.5635C45.0571 36.7858 46.0236 37.9783 47.1026 39.2135L49.0643 41.4595H48.3159C45.0692 41.4595 38.405 40.1661 34.1373 38.7077C31.9408 37.957 29.4933 36.9499 29.4933 36.7968C29.4933 36.7343 29.8502 36.5564 30.2862 36.401C30.7222 36.2458 31.6484 35.7975 32.3442 35.405C35.8526 33.4255 39.128 30.1928 42.0087 25.8666L43.0993 24.2288L43.4607 24.576C43.6595 24.767 45.5751 26.8835 47.7177 29.2792ZM13.3249 25.2474C12.4405 25.7387 12.2831 26.766 12.9687 27.5728C13.3174 27.9831 13.5083 28.0683 14.0686 28.0641C15.0752 28.0565 15.6429 27.4836 15.6429 26.4756C15.6429 25.4131 14.3041 24.7039 13.3249 25.2474ZM30.9232 25.2474C30.0387 25.7387 29.8813 26.766 30.567 27.5728C30.9157 27.9831 31.1065 28.0683 31.6668 28.0641C32.6734 28.0565 33.2411 27.4836 33.2411 26.4756C33.2411 25.4131 31.9023 24.7039 30.9232 25.2474ZM56.204 27.0888C55.8514 27.438 55.7277 27.7135 55.7277 28.1499C55.7277 29.5089 57.4419 30.2055 58.3858 29.23C59.3293 28.2549 58.6335 26.6173 57.2757 26.6173C56.8349 26.6173 56.5566 26.7397 56.204 27.0888ZM40.7366 31.4745C40.1446 31.7044 39.7668 32.2628 39.7625 32.9134C39.7581 33.6118 40.0783 34.091 40.727 34.357C42.5494 35.1044 43.7351 32.3833 41.9522 31.5455C41.3468 31.2611 41.2939 31.258 40.7366 31.4745ZM13.0232 36.6072C12.6706 36.9563 12.5469 37.2319 12.5469 37.6683C12.5469 38.488 13.2669 39.2009 14.0949 39.2009C14.9228 39.2009 15.6429 38.488 15.6429 37.6683C15.6429 36.8486 14.9228 36.1356 14.0949 36.1356C13.6541 36.1356 13.3758 36.2581 13.0232 36.6072ZM27.2318 38.6461C30.2458 40.1447 34.0838 41.5358 37.7115 42.4442C41.2579 43.3323 44.7231 43.8128 49.8887 44.1327L51.4637 44.2301L52.3086 45.2192L53.1535 46.2083L52.7128 46.325C52.0402 46.5031 46.5033 47.0802 43.6973 47.2646C37.0765 47.6995 26.5221 47.3073 20.8244 46.4144L19.5762 46.2187L21.9684 42.9039C25.4811 38.0363 25.5744 37.9103 25.667 37.9103C25.7138 37.9103 26.4179 38.2413 27.2318 38.6461ZM27.5036 42.895C26.425 43.8491 27.0263 45.4927 28.454 45.4927C29.2248 45.4927 29.6413 45.2449 29.8997 44.6327C30.1923 43.9391 30.0397 43.3107 29.4615 42.829C28.814 42.2897 28.163 42.3115 27.5036 42.895Z" fill="#F8F8F8"/>
</svg>
