<svg width="40" height="50" viewBox="0 0 40 50" fill="none" xmlns="http://www.w3.org/2000/svg">
<path fill-rule="evenodd" clip-rule="evenodd" d="M19.361 0.106678C19.1308 0.220274 18.9513 0.607945 18.9781 0.933397C18.9918 1.09983 18.5757 1.47403 16.9858 2.72495C13.6703 5.33374 13.2338 5.79838 13.4949 6.44166C13.7213 6.99978 14.0114 7.07411 15.8853 7.05418C16.8064 7.04442 18.5289 6.96764 19.7131 6.88364C21.9928 6.7217 22.3528 6.70588 22.2889 6.77015C22.267 6.79222 20.2035 7.23537 17.7035 7.7549C10.9959 9.14882 9.61483 9.53141 8.99061 10.1685C8.5618 10.6062 8.64898 11.2253 9.18496 11.5484C9.94851 12.0088 11.746 11.9937 19.7131 11.4597C22.4763 11.2744 25.5122 11.103 26.4596 11.0788C28.1163 11.0362 28.1583 11.0398 27.5601 11.1718C26.7419 11.3523 23.7782 11.777 18.6605 12.4471C12.4952 13.2543 10.6813 13.5907 9.64468 14.1187C9.13539 14.378 8.9953 14.5804 8.9953 15.0565C8.9953 15.4587 9.24171 15.7497 9.73234 15.9269C10.4017 16.1685 14.9566 16.0769 19.8088 15.7242C22.1509 15.5539 25.0146 15.3955 26.1725 15.372L28.2778 15.3294L27.4165 15.5248C26.0187 15.8422 23.8931 16.1454 16.5073 17.0809C7.66112 18.2013 5.97116 18.4835 4.66186 19.0583C3.8764 19.4032 3.62711 19.9789 3.99104 20.6077C4.37248 21.2667 5.4501 21.4711 8.56467 21.4751C11.091 21.4784 11.8511 21.438 18.7083 20.9352C28.2689 20.2343 32.9232 20.0018 33.6845 20.187C33.995 20.2626 33.9461 20.2843 33.0147 20.4835C30.9898 20.9165 28.6077 21.2157 18.0863 22.3591C9.03989 23.3422 6.3859 23.8587 5.49306 24.8099C5.10454 25.2238 5.12043 25.8038 5.53058 26.1778C6.03202 26.6351 6.61977 26.7056 9.85655 26.6959C12.6391 26.6876 15.734 26.5104 25.8964 25.7774C27.8758 25.6347 32.4374 25.556 32.189 25.6689C31.5352 25.9663 26.6718 26.4306 19.8088 26.851C15.8404 27.0941 9.15099 27.5461 8.18189 27.6367C3.94807 28.0322 1.76633 28.4996 1.08212 29.158C0.398281 29.8159 0.809289 30.7622 1.92241 31.0925C3.47017 31.5517 7.42045 31.5536 14.0193 31.0984C15.1772 31.0185 18.5576 30.778 21.5313 30.5641C29.2962 30.0055 31.7939 29.8718 34.5187 29.8686C37.0226 29.8656 37.6557 29.9473 36.729 30.1538C34.8316 30.5765 30.998 30.9565 24.7371 31.3423C14.7557 31.9572 11.3849 32.2105 9.07482 32.519C5.69364 32.9705 4.45411 33.4934 4.45411 34.4683C4.45411 36.0549 6.94131 36.1314 21.9619 35.0063C27.0227 34.6274 32.0025 34.4149 32.7754 34.5452L33.2539 34.6258L32.2491 34.7891C30.1337 35.1329 26.0587 35.4525 18.2777 35.885C8.54477 36.4259 4.93239 36.7395 2.52758 37.2523C0.704983 37.6409 0 38.0868 0 38.8508C0 39.853 1.07245 40.2639 4.01918 40.391C6.17891 40.484 9.94727 40.2956 18.8997 39.647C30.2682 38.8233 31.7818 38.7368 34.8807 38.7339C37.9743 38.731 38.4264 38.7907 38.855 39.259C39.1675 39.6005 39.403 39.6235 39.7482 39.3463C40.2212 38.9666 40.0003 38.193 39.3155 37.8316C38.8485 37.5851 37.6953 37.4062 36.1462 37.3401C33.7397 37.2372 30.286 37.4313 16.8901 38.4219C15.1006 38.5543 12.4738 38.737 11.0527 38.8282C8.24457 39.0082 3.01697 39.0648 2.24882 38.9236L1.77035 38.8356L2.20098 38.7027C3.5362 38.2908 8.00141 37.8504 14.9284 37.4477C28.9635 36.6317 30.5848 36.5034 33.0147 36.0168C34.8705 35.6451 35.5463 35.2326 35.5463 34.4711C35.5463 32.9718 33.2615 32.8325 21.9141 33.64C12.199 34.3313 8.6684 34.5168 7.34255 34.4058C6.93356 34.3717 6.61374 34.3284 6.63202 34.3098C6.71882 34.2212 9.14764 33.8669 10.8613 33.6927C13.3569 33.4393 15.7342 33.2656 21.627 32.9063C30.8739 32.3426 34.1459 32.0518 36.5075 31.5837C38.339 31.2207 39.2348 30.6729 39.2348 29.9158C39.2348 28.9401 38.4984 28.6368 35.8376 28.5166C33.1637 28.3958 30.9726 28.5038 20.0959 29.2928C17.1748 29.5046 13.6006 29.7526 12.1532 29.8436C9.32621 30.0217 3.54903 30.0814 2.91869 29.9392L2.53591 29.8527L2.82299 29.767C4.28013 29.3313 8.49596 28.9188 16.6509 28.4137C27.729 27.7274 30.6076 27.4665 32.7554 26.954C33.9894 26.6596 34.6099 26.2782 34.7782 25.7105C34.87 25.4014 34.6035 24.8349 34.2902 24.673C33.5996 24.3161 33.028 24.2624 30.0481 24.2746C27.623 24.2846 25.8996 24.372 19.8566 24.7914C12.6548 25.2913 7.13806 25.5182 7.46782 25.301C7.85624 25.0452 11.9133 24.4105 16.2681 23.9243C17.7155 23.7626 21.1243 23.3873 23.8433 23.0901C30.4178 22.3715 32.5036 22.0671 34.2584 21.5704C35.8202 21.1282 36.4259 20.4929 36.0621 19.678C35.9144 19.3469 35.6386 19.1761 34.9646 18.9978C33.5564 18.6254 30.6087 18.6939 22.5361 19.2863C19.9571 19.4755 16.6198 19.7175 15.1198 19.8241C11.9612 20.0483 6.02369 20.1902 6.17231 20.0377C6.40714 19.7969 8.76266 19.4409 17.3474 18.3491C21.1253 17.8686 24.7643 17.3885 25.4342 17.2822C28.7383 16.758 30.4177 16.2356 30.8571 15.5953C30.9385 15.4767 31.0051 15.2214 31.0051 15.0278C31.0051 14.5847 30.7195 14.2937 30.0835 14.0887C29.3091 13.8391 26.1652 13.9049 20.4787 14.2896C15.027 14.6586 12.5568 14.7912 12.6317 14.7111C12.6945 14.644 16.5464 14.0939 21.6748 13.4194C27.5917 12.6415 29.5235 12.2792 30.5291 11.7591C31.2351 11.3939 31.4396 10.9765 31.1883 10.4136C30.7897 9.52057 28.7993 9.46538 19.4739 10.0887C13.7953 10.4683 11.7704 10.5781 11.7704 10.5066C11.7704 10.4283 13.5751 10.0181 17.8173 9.13231C22.5981 8.13398 23.735 7.87358 24.7311 7.54891C26.102 7.10214 26.5457 6.77161 26.5457 6.19719C26.5457 5.19885 25.6752 5.09532 20.2957 5.45349C16.689 5.69367 15.5025 5.7556 15.5025 5.70373C15.5025 5.68088 16.3746 4.97195 17.4404 4.12824C20.2392 1.91268 20.7311 1.48321 20.9097 1.09915C21.0438 0.81062 21.0503 0.708647 20.9504 0.462507C20.8851 0.301344 20.7278 0.129241 20.601 0.080013C20.2983 -0.0374897 19.6238 -0.0230339 19.361 0.106678ZM17.9906 41.3121C17.9906 41.4255 16.7722 49.3016 16.6882 49.7314L16.6357 50H20.0002H23.3647L23.3122 49.7314C23.2282 49.3016 22.0098 41.4255 22.0098 41.3121C22.0098 41.2434 21.3431 41.2093 20.0002 41.2093C18.6573 41.2093 17.9906 41.2434 17.9906 41.3121Z" fill="#FF5C5C"/>
</svg>
