<svg width="43" height="38" viewBox="0 0 43 38" fill="none" xmlns="http://www.w3.org/2000/svg">
<path fill-rule="evenodd" clip-rule="evenodd" d="M0.499781 0.131195C-0.07252 0.385591 -0.177981 1.29216 0.312069 1.74424L0.568659 1.98091H3.04414C4.53221 1.98091 5.69733 2.01895 5.96527 2.07635C7.04495 2.30751 8.01815 3.12354 8.53941 4.23476L8.84982 4.89657L9.83799 4.90174C10.3886 4.90466 10.8262 4.87187 10.8262 4.82764C10.8262 4.58693 10.2939 3.20478 10.0301 2.76036C9.18975 1.34466 7.6561 0.330082 6.00017 0.0943602C4.98795 -0.0497062 0.84417 -0.0219944 0.499781 0.131195ZM9.5222 7.18021C9.4106 7.2945 9.29362 7.49209 9.26241 7.61946C9.22104 7.78814 9.88602 10.3203 11.7107 16.943C13.0885 21.9436 14.2686 26.1429 14.333 26.2749C14.3974 26.4069 14.582 26.5792 14.7432 26.6578C14.9478 26.7577 15.0211 26.8411 14.9858 26.9343C14.8386 27.3233 14.6118 28.5007 14.6113 28.8785C14.61 29.805 15.0372 30.9136 15.6898 31.677C16.1235 32.1843 16.9092 32.7409 17.4074 32.8937C17.769 33.0045 17.7614 32.94 17.5167 33.8208C17.352 34.4136 17.352 34.7726 17.5165 35.4191C17.8486 36.7244 18.7936 37.6434 20.0876 37.9194C22.5986 38.4552 24.7506 35.9357 23.8969 33.4595L23.7851 33.1351H27.4396C29.4497 33.1351 31.0943 33.157 31.0943 33.1838C31.0943 33.2105 31.0582 33.3014 31.014 33.3857C30.8495 33.7005 30.7657 34.5884 30.85 35.1241C31.1371 36.9481 32.8755 38.2497 34.6369 37.9595C36.6908 37.6209 37.9681 35.4776 37.2939 33.5008L37.1692 33.1351L38.6521 33.1347C39.9736 33.1344 40.1643 33.1161 40.4038 32.9667C40.9362 32.6345 40.9611 31.6912 40.4466 31.3463C40.2425 31.2093 39.431 31.1956 29.2057 31.1556L18.1849 31.1126L17.8428 30.9252C17.429 30.6986 16.9133 30.1317 16.7323 29.7047C16.519 29.2014 16.5652 28.3118 16.8492 27.455L17.0916 26.7235L27.5064 26.6805L37.9213 26.6374L38.0769 26.4407C38.2703 26.1964 38.0568 26.9783 40.7671 16.5841C42.3126 10.6569 43.0347 7.75157 42.9987 7.60492C42.9695 7.48564 42.847 7.29458 42.7265 7.18029L42.5073 6.97246H26.1163H9.72522L9.5222 7.18021ZM33.1829 12.9464C33.7607 13.2521 33.8302 14.2081 33.3055 14.6305C33.0934 14.8013 32.9806 14.804 26.1324 14.804C19.2506 14.804 19.1723 14.8021 18.956 14.628C18.439 14.2118 18.5131 13.2656 19.0882 12.9386C19.3863 12.7693 32.8622 12.7767 33.1829 12.9464ZM33.3055 19.0224C33.8302 19.4448 33.7607 20.4008 33.1829 20.7065C32.8338 20.8913 19.4246 20.8879 19.0751 20.703C18.5272 20.4131 18.435 19.5694 18.8995 19.0942L19.1391 18.8489H26.1145C32.9807 18.8489 33.0933 18.8517 33.3055 19.0224ZM21.4236 33.3287C22.2089 33.8757 22.3538 34.8955 21.7378 35.5404C21.4066 35.887 21.1908 35.9751 20.6729 35.9751C19.669 35.9751 19.0155 34.8584 19.4773 33.9321C19.6405 33.6046 19.9461 33.3122 20.2454 33.1972C20.565 33.0742 21.1525 33.1398 21.4236 33.3287ZM34.8084 33.3254C35.2656 33.5883 35.5041 34.0105 35.5013 34.552C35.497 35.4055 35.0209 35.9064 34.1675 35.9553C33.767 35.9783 33.6013 35.9471 33.3852 35.8084C32.6713 35.35 32.5001 34.3155 33.025 33.6325C33.4131 33.1277 34.2224 32.9883 34.8084 33.3254Z" fill="#8DB437"/>
</svg>
