<svg width="50" height="50" viewBox="0 0 50 50" fill="none" xmlns="http://www.w3.org/2000/svg">
<path fill-rule="evenodd" clip-rule="evenodd" d="M22.9576 11.7769C22.9575 13.7271 22.5406 15.6275 21.7525 17.2708C21.265 18.2874 20.859 18.8974 19.3065 20.946C18.2375 22.3566 17.8681 22.8682 17.57 23.351C16.5755 24.9616 16.0433 26.523 15.9234 28.1819C15.8969 28.5496 15.9089 29.4029 15.9455 29.7436C16.0924 31.1116 16.539 32.5534 17.158 33.6582C17.3014 33.9142 17.6992 34.5101 17.8732 34.7297C18.604 35.6517 19.4986 36.391 20.6657 37.0374C20.9424 37.1907 21.5731 37.5 21.6089 37.5C21.6154 37.5 21.5613 37.4274 21.4886 37.3386C19.8338 35.3171 19.2781 32.7766 19.9985 30.5264C20.2119 29.8601 20.5931 29.1431 21.0142 28.6161C21.0906 28.5205 21.1553 28.4493 21.1578 28.4578C21.1604 28.4664 21.1954 28.6497 21.2356 28.8651C21.5524 30.5641 21.9002 31.1395 22.8096 31.4693L22.9606 31.5241L22.9437 31.2273C22.9171 30.7612 22.9242 29.3031 22.9544 29.0044C23.0428 28.1321 23.1568 27.5344 23.3635 26.8596C23.7841 25.4864 24.5487 24.2693 25.5895 23.3166C25.7314 23.1866 25.8552 23.0775 25.8646 23.0741C25.8844 23.067 25.8603 23.0004 26.2432 24.1215C26.6317 25.2592 26.7266 25.5249 26.9016 25.9643C27.3587 27.1118 27.5562 27.437 28.6591 28.8573C29.5437 29.9964 30.0059 30.8885 30.2251 31.8793C30.4215 32.7671 30.3729 33.6131 30.0731 34.5224C29.9083 35.0225 29.8097 35.245 29.2797 36.3131C29.0268 36.8227 28.8131 37.2621 28.8047 37.2896C28.7911 37.3336 28.8358 37.3152 29.1903 37.1304C29.6239 36.9043 29.9225 36.7261 30.2282 36.5109C32.3188 35.0391 33.6788 32.7325 34.0095 30.0976C34.1827 28.7171 34.0843 27.4659 33.6691 25.7698C33.2064 23.8795 32.4928 22.1514 31.5619 20.6673L31.4067 20.4198L31.34 20.7193C31.2198 21.26 31.0123 21.8178 30.8105 22.1425C30.597 22.486 30.2698 22.8274 29.9314 23.0597C29.8236 23.1337 29.7324 23.1914 29.7289 23.1878C29.7253 23.1843 29.7132 22.9223 29.702 22.6058C29.6641 21.5401 29.5668 20.7272 29.3702 19.8337C28.6892 16.7383 27.0011 14.2375 24.2173 12.2003C23.9695 12.0189 23.2225 11.5176 23.0556 11.4206L22.9577 11.3636L22.9576 11.7769Z" fill="#FF5C5C"/>
<path fill-rule="evenodd" clip-rule="evenodd" d="M25 48.8636C38.1795 48.8636 48.8636 38.1795 48.8636 25C48.8636 11.8205 38.1795 1.13636 25 1.13636C11.8205 1.13636 1.13636 11.8205 1.13636 25C1.13636 38.1795 11.8205 48.8636 25 48.8636ZM25 50C38.8071 50 50 38.8071 50 25C50 11.1929 38.8071 0 25 0C11.1929 0 0 11.1929 0 25C0 38.8071 11.1929 50 25 50Z" fill="#FF5C5C"/>
<path fill-rule="evenodd" clip-rule="evenodd" d="M7.95455 42.0455L13.6364 36.3636L14.4399 37.1672L8.75808 42.849L7.95455 42.0455Z" fill="#FF5C5C"/>
<path fill-rule="evenodd" clip-rule="evenodd" d="M34.0909 15.9091L42.0455 7.95455L42.849 8.75808L34.8944 16.7126L34.0909 15.9091Z" fill="#FF5C5C"/>
</svg>
